<svg width="23" height="17" viewBox="0 0 23 17" fill="none" xmlns="http://www.w3.org/2000/svg">
<path d="M20.3625 0H2.3625C1.0875 0 0 1.05 0 2.3625V14.5125C0 15.7875 1.05 16.875 2.3625 16.875H20.3625C21.6375 16.875 22.725 15.825 22.725 14.5125V2.325C22.725 1.05 21.6375 0 20.3625 0ZM20.3625 1.6875C20.4 1.6875 20.4375 1.6875 20.475 1.6875L11.3625 7.5375L2.25 1.6875C2.2875 1.6875 2.325 1.6875 2.3625 1.6875H20.3625ZM20.3625 15.1125H2.3625C1.9875 15.1125 1.6875 14.8125 1.6875 14.4375V3.3375L10.4625 8.9625C10.725 9.15 11.025 9.225 11.325 9.225C11.625 9.225 11.925 9.15 12.1875 8.9625L20.9625 3.3375V14.475C21.0375 14.85 20.7375 15.1125 20.3625 15.1125Z" fill="white"/>
</svg>
